<svg aria-hidden="true" style="position:absolute;width:0;height:0;overflow:hidden" xmlns="http://www.w3.org/2000/svg"><defs><symbol id="icon-mobile-close" viewBox="0 0 32 32">
<path d="M16 32c-8.8 0-16-7.2-16-16s7.2-16 16-16c8.8 0 16 7.2 16 16s-7.2 16-16 16zM16 1.333c-8.133 0-14.667 6.533-14.667 14.667s6.533 14.667 14.667 14.667 14.667-6.533 14.667-14.667c0-8.133-6.533-14.667-14.667-14.667z"></path>
<path d="M21.333 11.733l-1.067-1.067-4.267 4.267-4.267-4.267-1.067 1.067 4.267 4.267-4.267 4.267 1.067 1.067 4.267-4.267 4.267 4.267 1.067-1.067-4.267-4.267 4.267-4.267z"></path></symbol></defs></svg>