<?xml version="1.0" encoding="utf-8"?>
<!-- Generator: Adobe Illustrator 23.0.1, SVG Export Plug-In . SVG Version: 6.00 Build 0)  -->
<svg version="1.1" xmlns="http://www.w3.org/2000/svg" xmlns:xlink="http://www.w3.org/1999/xlink" x="0px" y="0px"
	 viewBox="0 0 24 24" style="enable-background:new 0 0 24 24;" xml:space="preserve">
<style type="text/css">
	.st0{display:none;}
	.st1{display:inline;opacity:0.1;enable-background:new    ;}
	.st2{fill:#E7E9FC;}
	.st3{fill:#2E2F42;}
	.st4{opacity:0.1;enable-background:new    ;}
</style>
<g id="Layer_2" class="st0">
	<g class="st1">
		<circle class="st2" cx="12" cy="12" r="11.5"/>
		<path class="st3" d="M12,24C5.4,24,0,18.6,0,12S5.4,0,12,0c6.6,0,12,5.4,12,12S18.6,24,12,24z M12,1C5.9,1,1,5.9,1,12
			c0,6.1,4.9,11,11,11s11-4.9,11-11C23,5.9,18.1,1,12,1z"/>
	</g>
</g>
<g id="Layer_3">
	<g class="st4">
		<circle class="st2" cx="12" cy="12" r="11.5"/>
		<path class="st3" d="M12,24C5.4,24,0,18.6,0,12S5.4,0,12,0c6.6,0,12,5.4,12,12S18.6,24,12,24z M12,1C5.9,1,1,5.9,1,12
			c0,6.1,4.9,11,11,11s11-4.9,11-11C23,5.9,18.1,1,12,1z"/>
	</g>
</g>
</svg>
