<svg aria-hidden="true" style="position:absolute;width:0;height:0;overflow:hidden" xmlns="http://www.w3.org/2000/svg"><defs><symbol id="icon-menu" viewBox="0 0 47 32"><path d="M44.945 31.273H1.89c-1.164 0-2.182-1.018-2.182-2.182s1.018-2.182 2.182-2.182h42.909c1.164 0 2.182 1.018 2.182 2.182s-.873 2.182-2.036 2.182zm0-13.528H1.89c-1.164 0-2.182-1.018-2.182-2.182s1.018-2.182 2.182-2.182h42.909c1.164 0 2.182 1.018 2.182 2.182s-.873 2.182-2.036 2.182zm0-13.527H1.89C.726 4.218-.292 3.2-.292 2.036S.726-.146 1.89-.146h42.909c1.164 0 2.182 1.018 2.182 2.182s-.873 2.182-2.036 2.182z"/></symbol><symbol id="icon-menu" viewBox="0 0 32 32"><path d="M6.4 11.733V9.6h19.2v2.133H6.4zm0 5.334h19.2v-2.133H6.4v2.133zm0 5.333h19.2v-2.133H6.4V22.4z"/></symbol><symbol id="icon-menu2" viewBox="0 0 32 32"><path d="M4 10h24a2 2 0 0 0 0-4H4a2 2 0 0 0 0 4zm24 4H4a2 2 0 0 0 0 4h24a2 2 0 0 0 0-4zm0 8H4a2 2 0 0 0 0 4h24a2 2 0 0 0 0-4z"/></symbol></defs></svg>