<?xml version="1.0" encoding="utf-8"?>
<!-- Generator: Adobe Illustrator 23.0.1, SVG Export Plug-In . SVG Version: 6.00 Build 0)  -->
<svg version="1.1" id="Layer_1" xmlns="http://www.w3.org/2000/svg" xmlns:xlink="http://www.w3.org/1999/xlink" x="0px" y="0px"
	 viewBox="0 0 40 40" style="enable-background:new 0 0 40 40;" xml:space="preserve">
<style type="text/css">
	.st0{fill:#5461AC;}
	.st1{clip-path:url(#SVGID_2_);}
	.st2{fill:#F4F4FA;}
</style>
<path class="st0" d="M40,20.1c0,5.5-2.2,10.5-5.9,14.1c-3.6,3.6-8.6,5.9-14.1,5.9S9.5,37.9,5.9,34.2C2.2,30.6,0,25.6,0,20.1
	S2.2,9.6,5.9,6C9.5,2.3,14.5,0.1,20,0.1S30.5,2.3,34.1,6C37.8,9.6,40,14.6,40,20.1z"/>
<g>
	<defs>
		<rect id="SVGID_1_" x="8" y="8.1" width="24" height="24"/>
	</defs>
	<clipPath id="SVGID_2_">
		<use xlink:href="#SVGID_1_"  style="overflow:visible;"/>
	</clipPath>
	<g class="st1">
		<path class="st2" d="M32,12.7c-0.9,0.4-1.8,0.7-2.8,0.8c1-0.6,1.8-1.6,2.2-2.7c-1,0.6-2,1-3.1,1.2c-0.9-1-2.2-1.6-3.6-1.6
			c-2.7,0-4.9,2.2-4.9,4.9c0,0.4,0,0.8,0.1,1.1c-4.1-0.2-7.7-2.2-10.1-5.1C9.2,12,9,12.8,9,13.7c0,1.7,0.9,3.2,2.2,4.1
			c-0.8,0-1.6-0.2-2.2-0.6c0,0,0,0,0,0.1c0,2.4,1.7,4.4,3.9,4.8c-0.4,0.1-0.8,0.2-1.3,0.2c-0.3,0-0.6,0-0.9-0.1
			c0.6,1.9,2.4,3.4,4.6,3.4c-1.7,1.3-3.8,2.1-6.1,2.1c-0.4,0-0.8,0-1.2-0.1c2.2,1.4,4.8,2.2,7.5,2.2c9.1,0,14-7.5,14-14
			c0-0.2,0-0.4,0-0.6C30.5,14.5,31.3,13.7,32,12.7z"/>
	</g>
</g>
</svg>
